<mxfile host="app.diagrams.net" modified="2023-11-07T18:00:26.066Z" agent="Mozilla/5.0 (Windows NT 10.0; Win64; x64) AppleWebKit/537.36 (KHTML, like Gecko) Chrome/119.0.0.0 Safari/537.36 Edg/119.0.0.0" etag="7u_HKoBV3439oB-jBnKV" version="22.0.8" type="github">
  <diagram name="PÃ¡gina-1" id="BgM8hemlGuChHhuPVpw4">
    <mxGraphModel dx="789" dy="367" grid="1" gridSize="10" guides="1" tooltips="1" connect="1" arrows="1" fold="1" page="1" pageScale="1" pageWidth="850" pageHeight="1100" math="0" shadow="0">
      <root>
        <mxCell id="0" />
        <mxCell id="1" parent="0" />
        <mxCell id="xD2KIUjn5LeFKTYgZmYT-1" value="Libro&lt;br&gt;" style="rounded=0;whiteSpace=wrap;html=1;" vertex="1" parent="1">
          <mxGeometry x="60" y="90" width="120" height="60" as="geometry" />
        </mxCell>
      </root>
    </mxGraphModel>
  </diagram>
</mxfile>
